# xmcd
#
# Track frame offsets:
#	150
#	29565
#	47085
#	61267
#	82780
#	100457
#	124320
#	139165
#	176590
#	193270
#	208812
#	226887
#	243402
#	258725
#	287425
#	305290
#
# Disc length: 4306 seconds
#
# Revision: 0
# Processed by: cddbd v1.5.1PL2 Copyright (c) Steve Scherf et al.
# Submitted via: audiograbber 1.83.01
#
DISCID=e910d010
DTITLE=Evelyn "Champagne" King - The best of
DYEAR=1990
DGENRE=Funk
TTITLE0=Shame
TTITLE1=I'm in love
TTITLE2=If you want my lovin'
TTITLE3=Just for the night
TTITLE4=Betcha she don't love you
TTITLE5=I'm romantic
TTITLE6=Back to love
TTITLE7=I don't know if it's right
TTITLE8=Love come down
TTITLE9=Action
TTITLE10=High horse
TTITLE11=Get loose
TTITLE12=Music box
TTITLE13=Shake down
TTITLE14=I can't stand it
TTITLE15=Your personal touch
EXTD=
EXTT0=
EXTT1=
EXTT2=
EXTT3=
EXTT4=
EXTT5=
EXTT6=
EXTT7=
EXTT8=
EXTT9=
EXTT10=
EXTT11=
EXTT12=
EXTT13=
EXTT14=
EXTT15=
PLAYORDER=
